<svg xmlns="http://www.w3.org/2000/svg" viewBox="0 0 1400 380" fill="none"><g fill="#9aa79b"><path opacity=".4" d="M0 300 130 220 215 264 335 120 400 185 455 150 600 300 755 180 890 259 1040 140 1140 225 1260 90 1400 230V380H0Z"/><path opacity=".5" d="m0 340 150-72 110 47 140-74 155 87 175-94 122 85 110-54 198 73 140-120 100 75v87H0Z"/><path d="m0 365 190-42 160 30 170-35 160 34 120-25 150 28 220-35 230 50v10H0Z"/><circle cx="1090" cy="75" r="31" opacity=".25"/></g><g stroke="#bac0a3" stroke-width="3" opacity=".5"><path d="M1130 310v-47m46 47v-47m-54 48h62m-67-45h73m-77-2 42-23 42 23m-50-27 8 4 9-4M1130 277h46"/></g></svg>
